<svg width="160" height="44" viewBox="0 0 160 44" fill="none" xmlns="http://www.w3.org/2000/svg">
  <rect width="44" height="44" rx="12" fill="#243EE8"/>
  <path d="M13 13H18.2V24.7C18.2 28.1 19.7 29.8 22.5 29.8C25.3 29.8 26.8 28.1 26.8 24.7V13H32V25.1C32 31.1 28.3 34.5 22.5 34.5C16.7 34.5 13 31.1 13 25.1V13Z" fill="white"/>
  <path d="M35.2 14.1L31.3 20.1L35.4 26.3H31.1L29.2 23.1L27.3 26.3H23L27.1 20.1L23.2 14.1H27.5L29.2 17.1L30.9 14.1H35.2Z" fill="#9BE7FF"/>
  <path d="M58 14.2V25.1C58 31 54.8 34.2 49.3 34.2C43.8 34.2 40.6 31 40.6 25.1V14.2H45.1V25C45.1 28.4 46.5 30.1 49.3 30.1C52.1 30.1 53.5 28.4 53.5 25V14.2H58Z" fill="#111827"/>
  <path d="M67.7 24L61.4 14.2H66.7L70.5 20.4L74.3 14.2H79.4L73.1 23.9L79.8 34H74.5L70.4 27.4L66.3 34H61.1L67.7 24Z" fill="#111827"/>
  <path d="M91.4 14.2H96.1L103.7 34H98.8L97.4 30.1H89.9L88.5 34H83.8L91.4 14.2ZM96.1 26.4L93.7 19.8L91.3 26.4H96.1Z" fill="#111827"/>
  <path d="M106.9 13H111.3V34H106.9V13Z" fill="#111827"/>
  <path d="M115.8 19.2H120.1V21.1C121.1 19.7 122.7 18.9 124.8 18.9C128.3 18.9 130.5 21.3 130.5 25.2V34H126.1V25.8C126.1 23.8 125.1 22.7 123.3 22.7C121.4 22.7 120.1 24 120.1 26.2V34H115.8V19.2Z" fill="#111827"/>
  <path d="M133.8 26.6C133.8 22.1 137.1 18.9 141.5 18.9C145.9 18.9 149.1 22.1 149.1 26.6C149.1 31.1 145.9 34.3 141.5 34.3C137.1 34.3 133.8 31.1 133.8 26.6ZM144.8 26.6C144.8 24.3 143.5 22.7 141.5 22.7C139.4 22.7 138.1 24.3 138.1 26.6C138.1 28.9 139.4 30.5 141.5 30.5C143.5 30.5 144.8 28.9 144.8 26.6Z" fill="#111827"/>
</svg>
